<?xml version="1.0" standalone="no"?>
<!DOCTYPE svg PUBLIC "-//W3C//DTD SVG 20010904//EN"
 "http://www.w3.org/TR/2001/REC-SVG-20010904/DTD/svg10.dtd">
<svg version="1.0" xmlns="http://www.w3.org/2000/svg"
 width="438.000000pt" height="438.000000pt" viewBox="0 0 438.000000 438.000000"
 preserveAspectRatio="xMidYMid meet">

<g transform="translate(0.000000,438.000000) scale(0.100000,-0.100000)"
fill="#000000" stroke="none">
<path d="M1780 4140 c-186 -17 -369 -64 -491 -126 -86 -43 -216 -141 -274
-207 -138 -156 -236 -387 -265 -627 -6 -54 -10 -587 -10 -1491 0 -1210 2
-1408 14 -1418 11 -10 222 -11 888 -8 l873 4 135 26 c245 46 376 102 548 232
211 159 370 372 451 605 67 194 64 145 63 1199 -2 874 -3 956 -18 973 -16 16
-36 18 -211 18 l-193 0 0 -120 0 -120 100 0 101 0 -3 -117 -3 -118 -98 -5 -97
-5 -3 -217 -2 -217 100 -3 100 -3 3 -117 3 -118 -101 0 -100 0 -1 -205 c-1
-113 -2 -211 -3 -217 -1 -10 27 -14 102 -16 l102 -3 0 -109 0 -109 -102 -3
-101 -3 2 -75 c5 -155 -29 -310 -94 -440 -41 -81 -167 -188 -288 -245 -149
-71 -105 -68 -1004 -72 l-813 -5 0 512 c0 615 5 666 91 845 63 135 159 254
300 371 135 112 271 187 529 289 322 128 722 377 914 570 151 151 267 340 335
545 51 152 56 299 12 343 -14 14 -1347 20 -1491 7z m1215 -296 c35 -36 -33
-150 -179 -302 -111 -115 -225 -202 -421 -323 -271 -167 -328 -198 -660 -360
-281 -137 -505 -304 -590 -441 -17 -27 -37 -48 -45 -48 -23 0 -11 819 14 901
81 279 198 422 411 504 205 78 242 82 927 84 471 1 528 -1 543 -15z m-1647
-3381 l3 -123 -131 0 -130 0 0 125 0 126 128 -3 127 -3 3 -122z m712 2 l0
-125 -125 0 -125 0 0 125 0 125 125 0 125 0 0 -125z"/>
<path d="M1816 2437 c-3 -13 -5 -259 -6 -547 0 -556 2 -579 45 -572 11 2 38
15 60 28 705 431 797 491 809 526 17 50 -2 69 -205 190 -535 318 -671 398
-684 398 -7 0 -15 -10 -19 -23z"/>
</g>
</svg>
